<?xml version="1.0" encoding="utf-8"?>
<!-- Generator: Adobe Illustrator 21.1.0, SVG Export Plug-In . SVG Version: 6.00 Build 0)  -->
<svg version="1.1" id="Layer_3" xmlns="http://www.w3.org/2000/svg" xmlns:xlink="http://www.w3.org/1999/xlink" x="0px" y="0px"
	 viewBox="0 0 500 500" style="enable-background:new 0 0 500 500;" xml:space="preserve">
<style type="text/css">
	.st0{fill:url(#SVGID_1_);}
	.st1{fill:url(#SVGID_2_);}
	.st2{fill:url(#SVGID_3_);}
	.st3{clip-path:url(#SVGID_5_);fill:#fff;}
	.st4{fill:#fff;}
</style>
<linearGradient id="SVGID_1_" gradientUnits="userSpaceOnUse" x1="171.4349" y1="376.1413" x2="361.2143" y2="273.6814">
	<stop  offset="0" style="stop-color:#90278E"/>
	<stop  offset="7.938553e-02" style="stop-color:#753A9B"/>
	<stop  offset="0.2226" style="stop-color:#4C58AF"/>
	<stop  offset="0.3623" style="stop-color:#2B6FBF"/>
	<stop  offset="0.4955" style="stop-color:#1380CA"/>
	<stop  offset="0.6196" style="stop-color:#058BD1"/>
	<stop  offset="0.7255" style="stop-color:#008ED3"/>
	<stop  offset="1" style="stop-color:#003F6C"/>
</linearGradient>
<path class="st0" d="M230.8,289.5L160,330.4c-5.5,3.2-12.3,3.2-17.8,0l-0.1,0.2l97.5,56.3l3.9,2.3c5.5,3.2,12.3,3.2,17.8,0
	l105.4-60.9c5.5-3.2,8.9-9.1,8.9-15.4v-4.6h-0.2c0-6.4-3.4-12.2-8.9-15.4L295.7,252L230.8,289.5z"/>
<linearGradient id="SVGID_2_" gradientUnits="userSpaceOnUse" x1="217.5409" y1="149.8739" x2="391.0451" y2="253.974">
	<stop  offset="0" style="stop-color:#004120"/>
	<stop  offset="0.3077" style="stop-color:#50B748"/>
	<stop  offset="0.8006" style="stop-color:#00A551"/>
	<stop  offset="1" style="stop-color:#00C0F2"/>
</linearGradient>
<path class="st1" d="M243.5,114.9l-4,2.3l0.1,0.2c-5.5,3.2-8.9,9-8.9,15.4v81.8l64.9,37.5l70.8,40.9c5.5,3.2,8.9,9,8.9,15.4h0.2
	V195.7v-4.5c0-6.4-3.4-12.2-8.9-15.4l-105.4-60.9C255.8,111.7,249,111.7,243.5,114.9z"/>
<linearGradient id="SVGID_3_" gradientUnits="userSpaceOnUse" x1="183.8725" y1="338.382" x2="184.5472" y2="123.3151">
	<stop  offset="6.666667e-02" style="stop-color:#782655"/>
	<stop  offset="0.3641" style="stop-color:#EC1C24"/>
	<stop  offset="0.7667" style="stop-color:#EC1C24"/>
	<stop  offset="0.7826" style="stop-color:#EC1C24"/>
	<stop  offset="1" style="stop-color:#FBAE17"/>
</linearGradient>
<path class="st2" d="M142.1,173.5l-3.9,2.3c-5.5,3.2-8.9,9-8.9,15.4v121.7c0,6.3,3.4,12.2,8.9,15.4l4,2.3l0.1-0.2
	c5.5,3.2,12.3,3.2,17.8,0l70.8-40.9v-75v-81.8c0-6.4,3.4-12.2,8.9-15.4l-0.1-0.2L142.1,173.5z"/>
<g>
	<defs>
		<circle id="SVGID_4_" cx="250.6" cy="256.3" r="233.4"/>
	</defs>
	<clipPath id="SVGID_5_">
		<use xlink:href="#SVGID_4_"  style="overflow:visible;"/>
	</clipPath>
	<path class="st3" d="M252.1,940.5C108,940.5-9.3,823.2-9.3,679.1S108,417.7,252.1,417.7S513.5,535,513.5,679.1
		S396.2,940.5,252.1,940.5z M252.1,421.5C110,421.5-5.5,537-5.5,679.1S110,936.7,252.1,936.7s257.6-115.6,257.6-257.6
		S394.2,421.5,252.1,421.5z"/>
</g>
<g>
	<g>
		<path class="st4" d="M200.3,447l3.1,0.8l-10.2,39.5l-4.5-1.2l8.5-33.1l-6.9,3l-1.4-4.3L200.3,447z"/>
		<path class="st4" d="M216.9,492.5l-1.2-3.8c9.2-0.8,15.9-6.3,18.2-15.8c-1.9,2.8-5.3,4.5-9.6,4.1c-7-0.7-11.5-6.7-10.7-13.7
			c0.8-8,8-12.3,14.2-11.7c9,1,13,8,12.1,16.6C238.2,483.5,228.4,492.2,216.9,492.5z M227.3,456.2c-4.4-0.5-8.4,2.9-8.9,7.2
			c-0.5,4.4,2,8.7,7.4,9.3c4.7,0.5,7.9-2.3,9.1-5C235.5,462.2,233.4,456.9,227.3,456.2z"/>
		<path class="st4" d="M259.4,494.5l-1.8-3.5c8.9-2.4,14.6-9,15.2-18.7c-1.4,3.1-4.4,5.4-8.8,5.7c-7.1,0.5-12.5-4.6-13-11.6
			c-0.6-8,5.7-13.5,12-14c9-0.6,14.2,5.6,14.8,14.3C278.9,482,270.7,492.3,259.4,494.5z M263.4,457c-4.5,0.3-7.8,4.3-7.5,8.7
			c0.3,4.4,3.5,8.2,8.9,7.9c4.7-0.3,7.4-3.6,8.1-6.5C272.5,461.5,269.5,456.6,263.4,457z"/>
		<path class="st4" d="M309.6,476.1l-18.2,4.5l-0.8-3.2l9.8-30.4l5.2-1.3l-9.4,28.9l12.3-3.1l-2.7-11l4.5-1.1l2.7,11l5.5-1.4
			l1.1,4.5l-5.5,1.4l2.5,9.8l-4.5,1.1L309.6,476.1z"/>
	</g>
	<g>
		<path class="st4" d="M86.8,391.3l-10.2-11.8l11.8-10.2c5.1,0.4,10.9,4,14.2,7.8c8.3,9.5,7.3,20.9-2.2,29.2
			c-8.8,7.7-20.9,7.8-28.8-1.3c-3.6-4.2-5.2-8-5.4-12.2l4.4-1c-0.1,3.2,1.6,6.8,4.1,9.7c5.9,6.8,14.9,7.3,22.3,0.9
			c7.4-6.5,8.1-15.4,2.1-22.3c-2.5-2.9-6.6-5.3-9.6-5.5l-6.3,5.5l7.2,8.3L86.8,391.3z"/>
		<path class="st4" d="M53.6,380l-2.6-4.2l34.3-21.8l2.6,4.2L53.6,380z"/>
		<path class="st4" d="M44.9,366.8l-14.1-30.2l4.2-2l6,12.9l32.6-15.2l2.1,4.5l-32.6,15.2l6,12.9L44.9,366.8z"/>
		<path class="st4" d="M66.2,314.7L27,325.2c-0.6-2.2-2.6-9.4-2.9-10.5c-2.9-10.7,1.6-15.4,7.9-17.1c6.1-1.6,11.1,1.5,13.4,5.5
			l13.1-17.5l1.6,5.8l-12.4,16.3l1.7,6.4l15.7-4.2L66.2,314.7z M30.2,319.3l14.6-3.9l-1.6-5.8c-1.2-4.5-5.2-8.2-9.8-6.9
			c-4,1.1-6.6,4.2-4.8,11.1C29,315,29.7,317.4,30.2,319.3z"/>
		<path class="st4" d="M13.8,265.8l-0.4-24.1l4.9-0.1l0.3,18.9l15.1-0.2l-0.3-17.1l4.9-0.1l0.3,17.1l17.8-0.3l0.1,5.2L13.8,265.8z"
			/>
		<path class="st4" d="M14.6,229.6l0.5-5.2l42.5,4.5l-0.5,5.2L14.6,229.6z"/>
		<path class="st4" d="M17.5,207.9l1.2-5l36.8,8.6l4.8-20.5l4.8,1.1l-6,25.5L17.5,207.9z"/>
		<path class="st4" d="M27.6,169l2.3-4.7l26.7-5l-13.1-23.3l2.1-4.5l38.5,18.4l-2.2,4.7l-31.1-14.9l12.6,22.8l-0.3,0.7l-25.6,4.7
			l31,14.8l-2.2,4.7L27.6,169z"/>
		<path class="st4" d="M112.8,107.2c0.6,4.3-0.2,9.2-4.7,13.7c-5.6,5.8-13.3,6.3-18.4,1.4c-5.1-5-4.7-11.6-3.6-17.6
			c-3.1,1.6-6.8,1.3-9.7-1.5c-3.8-3.7-3.2-9.4,0.2-12.9c3.5-3.6,9.1-4.3,12.9-0.6c2.8,2.8,3.3,7.2,1.4,10.2l16.8,1.9
			c-1.2-4-3.8-8.6-7.9-12.6l3.4-3.5c4.9,4.7,8.3,10.8,9.4,16.6l11.5,1.2l-4.2,4.4L112.8,107.2z M86.5,99.9c1.9-2,1.8-5-0.1-6.9
			c-1.9-1.9-5-1.8-6.9,0.1c-1.9,1.9-1.8,4.9,0.1,6.9C81.5,101.8,84.6,101.8,86.5,99.9z M107.9,106.7l-17.5-2.1
			c-0.7,5.5-0.6,10.2,2.5,13.2c3.5,3.4,8.7,3,11.8-0.3C107.9,114.2,108.7,110.4,107.9,106.7z"/>
		<path class="st4" d="M117.3,55.7l30.5-17.4l2.4,4.2l-13,7.4L156,82.8l-4.5,2.6l-18.7-32.9l-13,7.4L117.3,55.7z"/>
		<path class="st4" d="M159.4,33.5l22.7-8.1l1.6,4.6l-17.8,6.4l4.6,13l16.1-5.8l1.6,4.6L172.2,54l4.8,13.4l18.4-6.6l1.6,4.6
			l-23.3,8.3L159.4,33.5z"/>
		<path class="st4" d="M196.3,21.8l5.1-0.9l6.9,37.2l20.7-3.8l0.9,4.8l-25.8,4.8L196.3,21.8z"/>
		<path class="st4" d="M234.5,16.2l24.1-0.4l0.1,4.9l-18.9,0.4l0.3,13.8l17.1-0.3l0.1,4.9l-17.1,0.3l0.3,14.3l19.5-0.4l0.1,4.9
			l-24.7,0.5L234.5,16.2z"/>
		<path class="st4" d="M284.8,62l-3.8-0.6L270.5,16l5.5,0.9l8.4,37.1l19.8-32.3l5.2,0.9L284.8,62z"/>
		<path class="st4" d="M320.7,26.7l4.9,1.6l-13.2,40.6l-4.9-1.6L320.7,26.7z"/>
		<path class="st4" d="M334.9,42.6c2.6-5.6,9.1-8.1,16.4-4.6c4.5,2.1,7.7,5.6,8.7,9.1l-4.2,2.3c-1.1-3-3-5.3-6.3-6.8
			c-4.3-2-8-1-9.6,2.4c-4.5,9.5,16,14.9,9.8,28.1c-3,6.3-10.5,7.8-17.5,4.5c-4.7-2.2-9.2-7-9.5-11.6l4.2-1.9c0.9,4,4.1,7.6,7.4,9.1
			c4,1.9,8.5,1.5,10.4-2.4C349.2,61.3,328.9,55.4,334.9,42.6z"/>
		<path class="st4" d="M374.9,51.6l4.4,2.8l-23,36l-4.4-2.8L374.9,51.6z"/>
		<path class="st4" d="M408.9,76.5c9.2,8.3,10.1,21.3,1.4,30.9c-8.5,9.4-21.7,10-30.9,1.7c-9.2-8.3-10.1-21.3-1.4-30.9
			C386.3,69,399.5,68,408.9,76.5z M382.7,105.5c7.2,6.5,17.1,5.4,23.5-1.7c6.7-7.4,6.2-17.5-0.6-23.6c-6.9-6.2-16.9-5.6-23.5,1.7
			C375.5,89.1,375.9,99.3,382.7,105.5z"/>
		<path class="st4" d="M417.8,154.9l12.9-40.9l-27.8,18.8l-2.7-4l35.4-23.9l2.3,3.4l-13,40.9l27.9-18.9l2.7,4l-35.4,23.9
			L417.8,154.9z"/>
		<path class="st4" d="M460.6,170.5c5.9-1.9,12.1,1.1,14.6,8.8c1.5,4.7,1.2,9.4-0.6,12.6l-4.6-1.5c1.5-2.8,1.8-5.8,0.6-9.3
			c-1.5-4.5-4.7-6.5-8.3-5.4c-10,3.2,0.1,21.9-13.7,26.4c-6.7,2.2-12.9-2.3-15.3-9.7c-1.6-5-1.2-11.5,2-14.8l4.3,1.8
			c-2.4,3.4-2.7,8.2-1.6,11.6c1.4,4.2,4.8,7.2,8.9,5.9C456.8,193.6,447.2,174.8,460.6,170.5z"/>
		<path class="st4" d="M448.1,243.6c-3.3-2.4-5.8-7.5-6.5-12.7c-1.7-12.7,5.7-22.6,18.9-24.4c12.2-1.6,22.8,4.9,24.6,18.2
			c0.7,5.4-0.2,10.1-2.4,13.4l-4.2-1.8c1.7-3.1,2.3-6.5,1.7-10.9c-1.2-9.2-9-14.8-19.1-13.4c-10.1,1.4-16,9-14.7,18.8
			c0.5,4.1,2.5,7.7,5.2,10.3L448.1,243.6z"/>
		<path class="st4" d="M461.3,279.5l1.7-23.4l-19.3-1.4l0.4-5.2l42.6,3.1l-0.4,5.2l-18.4-1.3l-1.7,23.4l18.4,1.3l-0.4,5.2l-42.6-3.1
			l0.4-5.2L461.3,279.5z"/>
		<path class="st4" d="M475.5,324.1c-3.8,11.8-15.1,18-27.5,14.1c-12.1-3.8-18.1-15.6-14.3-27.4s15.1-18,27.5-14.1
			C473,300.4,479.4,312,475.5,324.1z M438.3,312.3c-3,9.3,2.2,17.8,11.3,20.7c9.5,3,18.4-1.6,21.2-10.3c2.8-8.8-1.9-17.7-11.3-20.7
			C450.3,299,441.1,303.6,438.3,312.3z"/>
		<path class="st4" d="M451.3,376.8c-6.5,10.5-19.1,13.8-30.1,7c-10.8-6.7-13.7-19.5-7.2-30.1c6.5-10.5,19.1-13.8,30.1-7
			C454.6,353.2,458,366,451.3,376.8z M418.1,356.2c-5.1,8.3-2.2,17.8,5.9,22.8c8.5,5.2,18.3,2.9,23.1-4.9c4.9-7.9,2.5-17.6-5.9-22.8
			C433,346.3,422.9,348.4,418.1,356.2z"/>
		<path class="st4" d="M428.7,406.9l-3.6,3.8l-27.5-26L383.2,400l-3.5-3.3l18-19.1L428.7,406.9z"/>
	</g>
</g>
</svg>
